<?xml version="1.0" standalone="no"?>
<!DOCTYPE svg PUBLIC "-//W3C//DTD SVG 20010904//EN"
 "http://www.w3.org/TR/2001/REC-SVG-20010904/DTD/svg10.dtd">
<svg version="1.0" xmlns="http://www.w3.org/2000/svg"
 width="200.000000pt" height="200.000000pt" viewBox="0 0 200.000000 200.000000"
 preserveAspectRatio="xMidYMid meet">
<metadata>
Created by potrace 1.16, written by Peter Selinger 2001-2019
</metadata>
<g transform="translate(0.000000,200.000000) scale(0.100000,-0.100000)"
fill="#000000" stroke="none">
<path d="M430 1220 c0 -23 4 -30 20 -30 17 0 19 -8 22 -67 l3 -68 30 0 30 0 3
67 c3 60 5 67 25 70 16 2 22 10 22 28 0 24 -2 25 -77 28 l-78 3 0 -31z"/>
<path d="M612 1153 c3 -97 3 -98 28 -98 21 0 26 5 28 33 2 23 8 32 22 32 14 0
20 -9 22 -32 3 -29 6 -33 33 -33 l30 0 0 95 0 95 -30 0 c-27 0 -30 -4 -33 -32
-2 -25 -8 -33 -23 -33 -15 0 -19 7 -19 35 0 32 -2 35 -30 35 l-31 0 3 -97z"/>
<path d="M812 1153 l3 -98 65 0 c63 0 65 1 68 28 3 26 1 27 -37 27 -23 0 -41
5 -41 10 0 6 14 10 30 10 25 0 30 4 30 24 0 20 -6 25 -32 29 -29 3 -27 4 10 5
40 2 42 4 42 32 l0 30 -70 0 -71 0 3 -97z"/>
<path d="M610 895 l0 -95 30 0 c27 0 30 3 30 30 0 23 4 30 20 30 16 0 20 -7
20 -31 0 -28 2 -30 33 -27 l32 3 0 90 0 90 -30 0 c-27 0 -30 -4 -33 -32 -2
-25 -8 -33 -23 -33 -15 0 -19 7 -19 35 0 32 -2 35 -30 35 l-30 0 0 -95z"/>
<path d="M810 906 c0 -99 9 -111 80 -111 71 0 80 12 80 111 l0 84 -30 0 -30 0
0 -70 c0 -63 -2 -70 -20 -70 -18 0 -20 7 -20 70 l0 70 -30 0 -30 0 0 -84z"/>
<path d="M1007 983 c-4 -3 -7 -46 -7 -95 l0 -88 73 0 c43 0 78 5 85 12 15 15
16 74 2 83 -5 3 -10 21 -10 39 0 17 -5 37 -12 44 -13 13 -120 17 -131 5z"/>
</g>
</svg>
